<?xml version="1.0" standalone="no"?>
<!DOCTYPE svg PUBLIC "-//W3C//DTD SVG 20010904//EN"
 "http://www.w3.org/TR/2001/REC-SVG-20010904/DTD/svg10.dtd">
<svg version="1.0" xmlns="http://www.w3.org/2000/svg"
 width="461.000000pt" height="547.000000pt" viewBox="0 0 461.000000 547.000000"
 preserveAspectRatio="xMidYMid meet">

<g transform="translate(0.000000,547.000000) scale(0.100000,-0.100000)"
fill="#000000" stroke="none">
<path d="M291 5399 c-105 -20 -175 -79 -208 -174 -17 -47 -18 -189 -18 -2515
0 -2388 1 -2467 19 -2519 25 -71 86 -132 157 -157 52 -18 121 -19 2069 -19
1948 0 2017 1 2069 19 68 23 131 85 157 152 18 47 19 105 22 1769 2 1189 -1
1740 -8 1785 -6 36 -25 94 -42 130 -28 60 -89 124 -727 761 -523 522 -709 702
-747 722 -112 59 -64 57 -1439 56 -693 -1 -1280 -5 -1304 -10z m2599 -309 c13
-8 16 -85 20 -562 5 -551 5 -553 28 -603 41 -89 97 -132 200 -154 35 -7 225
-11 565 -11 305 0 518 -4 527 -10 13 -8 15 -52 18 -275 l3 -265 -1941 0 -1940
0 2 919 c3 879 4 920 22 939 10 12 28 23 40 25 46 9 2441 6 2456 -3z m-611
-2175 c170 -41 263 -149 264 -308 1 -225 -152 -356 -418 -361 l-95 -1 -2 -185
-3 -185 -117 -3 -118 -3 0 520 0 520 33 5 c66 11 96 13 242 14 103 1 170 -3
214 -13z m1176 -5 c43 -11 80 -22 82 -24 6 -5 -37 -169 -47 -179 -4 -5 -34 0
-66 9 -41 13 -93 18 -169 18 -100 0 -116 -2 -173 -28 -115 -53 -172 -143 -180
-283 -9 -164 53 -281 180 -338 53 -24 77 -29 148 -29 125 -1 120 -6 120 124
l0 110 -85 0 -85 0 0 90 0 90 200 0 200 0 0 -274 0 -275 -52 -14 c-163 -47
-385 -56 -508 -23 -234 64 -370 247 -370 501 0 263 151 459 402 525 104 27
297 27 403 0z m-1867 -392 c-3 -391 -4 -405 -26 -459 -30 -76 -81 -132 -150
-166 -50 -24 -70 -28 -167 -31 -60 -2 -128 1 -150 5 l-40 9 1 50 c0 27 4 70 8
97 l7 47 42 -7 c66 -12 145 -7 173 12 14 9 34 35 45 58 17 39 19 71 19 415 l0
372 121 0 120 0 -3 -402z m2660 -1543 l-3 -604 -23 -23 -23 -23 -1889 0 -1889
0 -23 23 -23 23 -3 604 -3 605 1941 0 1941 0 -3 -605z"/>
<path d="M2030 2590 l0 -160 73 0 c128 1 197 52 204 154 8 109 -60 166 -199
166 l-78 0 0 -160z"/>
</g>
</svg>
