<?xml version="1.0" standalone="no"?>
<!DOCTYPE svg PUBLIC "-//W3C//DTD SVG 20010904//EN"
 "http://www.w3.org/TR/2001/REC-SVG-20010904/DTD/svg10.dtd">
<svg version="1.0" xmlns="http://www.w3.org/2000/svg"
 width="2126.000000pt" height="2148.000000pt" viewBox="0 0 2126.000000 2148.000000"
 preserveAspectRatio="xMidYMid meet">

<g transform="translate(0.000000,2148.000000) scale(0.100000,-0.100000)"
fill="#000000" stroke="none">
<path d="M5120 21219 c0 -6 -16 -27 -35 -47 -19 -20 -35 -43 -35 -50 0 -7 -18
-32 -40 -56 -22 -24 -40 -48 -40 -55 0 -6 -13 -24 -30 -39 -16 -16 -30 -35
-30 -43 -1 -8 -34 -50 -75 -93 -41 -44 -75 -85 -75 -91 0 -6 -13 -27 -30 -45
-16 -18 -30 -38 -30 -43 0 -4 -18 -30 -40 -56 -22 -26 -40 -51 -40 -57 0 -5
-29 -40 -65 -77 -36 -38 -65 -74 -65 -81 0 -7 -11 -25 -25 -40 -14 -15 -25
-31 -25 -36 0 -5 -36 -49 -80 -97 -44 -49 -80 -94 -80 -102 0 -7 -11 -22 -25
-33 -14 -11 -25 -26 -25 -34 0 -8 -18 -34 -40 -58 -22 -24 -40 -49 -40 -57 0
-8 -30 -45 -65 -83 -36 -38 -65 -74 -65 -80 0 -7 -13 -25 -30 -41 -16 -16 -30
-36 -30 -45 0 -9 -18 -34 -40 -55 -22 -21 -40 -46 -40 -53 0 -8 -18 -34 -40
-58 -22 -24 -40 -50 -40 -58 0 -8 -10 -16 -22 -18 -13 -2 -24 -11 -27 -23 -2
-11 -16 -35 -32 -53 -16 -18 -29 -38 -29 -45 0 -7 -22 -35 -50 -62 -27 -27
-50 -57 -50 -66 0 -10 -11 -20 -25 -23 -14 -4 -25 -14 -25 -23 0 -8 -18 -35
-40 -59 -22 -24 -40 -50 -40 -57 0 -7 -11 -24 -25 -37 -14 -13 -25 -30 -25
-37 0 -7 -18 -33 -40 -57 -22 -24 -40 -50 -40 -58 0 -8 -16 -30 -36 -49 -20
-18 -40 -45 -45 -57 -5 -13 -18 -26 -29 -29 -11 -3 -20 -12 -20 -19 0 -8 -18
-34 -40 -58 -22 -24 -40 -48 -40 -55 0 -6 -18 -31 -40 -55 -22 -24 -40 -47
-40 -51 0 -4 -13 -24 -30 -45 -16 -21 -30 -43 -30 -49 0 -6 -11 -16 -25 -21
-14 -5 -25 -17 -25 -28 0 -10 -18 -36 -40 -57 -22 -21 -40 -46 -40 -53 0 -8
-18 -34 -40 -58 -22 -24 -40 -48 -40 -54 0 -6 -11 -15 -25 -20 -14 -5 -25 -17
-25 -28 0 -10 -18 -36 -40 -57 -22 -21 -40 -46 -40 -55 -1 -8 -19 -33 -40 -55
-22 -22 -40 -46 -40 -54 0 -7 -11 -24 -24 -36 -13 -12 -27 -32 -31 -43 -3 -12
-13 -22 -21 -22 -8 0 -19 -12 -24 -26 -6 -14 -26 -42 -45 -62 -19 -20 -35 -41
-35 -45 0 -5 -18 -30 -40 -56 -22 -26 -40 -51 -40 -57 0 -5 -25 -36 -55 -68
-30 -33 -55 -64 -55 -70 0 -5 -23 -35 -50 -67 -28 -32 -50 -61 -50 -66 0 -4
-14 -23 -30 -42 -17 -18 -30 -38 -30 -43 0 -6 -29 -42 -65 -80 -36 -39 -65
-76 -65 -83 0 -6 -18 -31 -40 -56 -22 -24 -40 -49 -40 -55 0 -6 -11 -21 -25
-34 -14 -13 -25 -29 -25 -36 0 -8 -34 -51 -76 -96 -41 -46 -82 -97 -90 -115
-9 -17 -22 -34 -30 -37 -8 -3 -14 -14 -14 -24 0 -10 -18 -35 -39 -56 -22 -21
-42 -49 -45 -62 -4 -15 -14 -24 -26 -24 -12 0 -22 -9 -26 -24 -3 -13 -21 -39
-40 -57 -19 -18 -34 -39 -34 -46 0 -7 -18 -33 -40 -57 -22 -24 -40 -48 -40
-55 0 -6 -17 -30 -39 -54 -21 -23 -40 -51 -42 -62 -3 -12 -14 -21 -27 -23 -13
-2 -22 -10 -22 -21 0 -9 -13 -30 -30 -46 -16 -16 -30 -36 -30 -45 0 -9 -18
-34 -40 -55 -22 -21 -40 -45 -40 -52 0 -7 -29 -44 -65 -82 -36 -37 -65 -75
-65 -83 0 -8 -11 -25 -25 -38 -14 -13 -25 -29 -25 -37 0 -7 -28 -43 -63 -80
-34 -38 -73 -89 -85 -115 -13 -26 -32 -50 -42 -53 -11 -4 -20 -12 -20 -20 0
-7 -16 -30 -35 -51 -20 -22 -44 -55 -54 -74 -11 -19 -31 -46 -45 -59 -14 -14
-26 -30 -26 -36 0 -7 -10 -20 -21 -31 -12 -10 -28 -34 -36 -52 -8 -18 -27 -41
-43 -50 -16 -9 -32 -27 -35 -39 -4 -16 -13 -23 -30 -23 -22 0 -25 -4 -25 -38
0 -31 6 -43 33 -63 l32 -24 1085 -7 c597 -4 1245 -10 1441 -13 l356 -5 -1
-2403 c-1 -2613 -4 -2453 55 -3117 83 -936 216 -1664 399 -2180 28 -80 82
-236 121 -348 207 -609 408 -1047 676 -1472 47 -74 117 -187 156 -250 1152
-1888 2912 -3351 4957 -4118 877 -329 1569 -488 2485 -569 286 -25 1076 -25
1355 0 866 79 1485 217 2300 515 1626 595 3051 1729 4039 3212 802 1204 1254
2515 1341 3885 13 204 13 675 0 870 -55 827 -250 1636 -575 2385 -582 1341
-1603 2508 -2829 3235 -922 546 -1749 822 -2791 932 -246 25 -919 26 -1160 0
-629 -67 -1147 -196 -1665 -415 -208 -88 -613 -292 -780 -392 -1427 -857
-2424 -2256 -2744 -3850 -110 -550 -129 -1106 -55 -1645 193 -1405 995 -2696
2142 -3448 321 -211 711 -407 1052 -529 986 -354 1948 -363 2886 -27 650 232
1227 618 1670 1115 564 631 911 1388 1011 2204 20 159 16 602 -5 770 -82 626
-297 1162 -669 1668 -52 70 -116 159 -143 197 -193 277 -489 560 -791 758
-661 433 -1510 573 -2283 377 -392 -99 -753 -277 -1081 -530 -127 -98 -352
-320 -457 -450 -729 -902 -857 -2126 -330 -3155 141 -275 323 -520 553 -746
373 -365 813 -612 1315 -739 916 -232 1887 0 2614 625 l70 60 -45 -64 c-175
-249 -482 -557 -736 -738 -678 -485 -1535 -697 -2332 -577 -643 96 -1331 420
-1853 872 -641 555 -1087 1365 -1224 2227 -79 493 -51 974 86 1495 304 1154
1152 2185 2234 2715 612 300 1198 439 1855 438 392 0 687 -37 1065 -133 994
-254 1938 -865 2581 -1673 597 -750 939 -1560 1066 -2522 19 -148 22 -215 22
-525 0 -441 -22 -659 -110 -1055 -38 -169 -42 -185 -103 -390 -149 -498 -415
-1053 -723 -1513 -200 -298 -427 -572 -703 -847 -586 -587 -1266 -1026 -2032
-1313 -468 -176 -920 -285 -1398 -339 -224 -25 -831 -25 -1055 0 -789 88
-1430 277 -2145 632 -666 331 -1189 703 -1724 1230 -339 334 -583 627 -828
995 -198 297 -274 432 -378 665 -257 573 -457 1258 -579 1975 -41 241 -51 334
-71 650 -42 654 -43 776 -47 3105 l-3 2260 505 3 c316 1 508 6 514 12 7 7 395
10 1103 10 1057 0 1095 1 1114 19 30 28 24 105 -8 109 -14 2 -23 10 -23 20 0
9 -25 44 -55 77 -30 33 -55 65 -55 71 0 5 -22 35 -50 66 -27 31 -50 60 -50 65
0 5 -18 29 -40 53 -22 24 -40 48 -40 53 0 5 -18 30 -40 56 -22 26 -40 52 -40
57 0 6 -13 23 -30 39 -16 16 -30 37 -30 47 0 10 -10 20 -24 24 -13 3 -30 18
-37 32 -7 15 -26 43 -41 63 -15 20 -28 41 -28 45 0 5 -30 41 -65 79 -36 39
-65 75 -65 80 0 6 -18 31 -40 55 -22 24 -40 49 -40 55 0 6 -18 29 -40 50 -22
21 -40 46 -40 55 0 9 -11 27 -25 40 -14 13 -25 31 -25 39 0 9 -29 45 -65 81
-35 36 -65 72 -65 80 0 8 -25 42 -55 74 -30 33 -55 64 -55 71 0 6 -11 22 -24
34 -14 13 -26 33 -28 45 -2 13 -12 22 -25 24 -14 2 -23 10 -23 20 0 9 -18 35
-40 57 -21 22 -39 47 -40 55 0 9 -18 34 -40 55 -22 21 -40 45 -40 52 0 7 -13
28 -30 46 -16 19 -30 42 -30 50 0 9 -10 17 -22 19 -14 2 -24 11 -26 24 -2 11
-21 38 -42 59 -22 22 -40 46 -40 55 0 9 -18 34 -40 55 -22 21 -40 47 -40 56 0
10 -11 20 -25 23 -15 4 -25 14 -25 24 0 10 -18 36 -40 57 -22 21 -40 46 -40
53 0 8 -18 34 -40 58 -22 24 -40 50 -40 57 0 7 -11 24 -24 36 -13 13 -27 33
-30 44 -3 12 -40 56 -81 97 -41 41 -75 82 -75 91 0 9 -9 24 -21 35 -11 10 -27
33 -34 50 -7 18 -23 37 -34 44 -12 6 -21 19 -21 29 0 19 -39 61 -58 61 -7 0
-12 7 -12 15 0 9 -18 35 -40 59 -22 24 -40 50 -40 58 0 8 -13 27 -30 43 -16
16 -30 35 -30 42 0 7 -28 42 -63 79 -35 36 -72 85 -83 109 -10 24 -29 48 -41
54 -15 7 -23 21 -25 43 -2 23 -9 34 -22 36 -21 4 -55 40 -56 58 0 6 -11 21
-25 34 -14 13 -25 31 -25 40 0 18 -35 53 -62 63 -10 4 -18 15 -18 25 0 10 -11
29 -25 42 -14 13 -25 29 -25 35 0 6 -18 29 -40 50 -22 21 -40 46 -40 55 0 9
-18 34 -40 55 -22 21 -40 47 -40 57 0 11 -11 23 -25 28 -14 5 -25 16 -25 23 0
8 -13 27 -30 43 -16 16 -30 35 -30 43 0 7 -22 38 -50 68 -27 30 -50 61 -50 69
0 7 -13 20 -30 29 -23 12 -30 23 -30 44 0 20 -7 31 -25 39 -14 6 -25 17 -25
23 0 7 -18 31 -40 55 -22 24 -40 49 -40 55 0 7 -18 31 -40 55 -22 24 -40 50
-40 57 0 7 -11 24 -25 37 -14 13 -25 31 -25 40 0 9 -18 34 -40 55 -22 21 -40
46 -40 55 0 8 -29 45 -65 80 -36 35 -65 71 -65 80 0 9 -29 45 -65 80 -36 35
-65 72 -65 81 0 9 -7 22 -15 29 -8 7 -15 21 -15 31 0 12 -10 21 -25 25 -14 3
-25 13 -25 23 0 9 -18 35 -40 56 -22 21 -40 46 -40 55 0 9 -13 29 -30 45 -16
16 -30 37 -30 46 0 11 -9 19 -22 21 -13 2 -24 11 -27 23 -2 11 -21 39 -42 62
-22 24 -39 48 -39 55 -1 7 -19 31 -40 53 -22 22 -40 47 -40 55 -1 8 -30 44
-65 80 -36 36 -65 72 -65 80 0 9 -18 34 -40 55 -22 21 -40 46 -40 55 0 9 -11
27 -25 40 -14 13 -25 28 -25 34 -1 6 -30 43 -65 81 -36 39 -65 75 -65 81 0 6
-18 30 -40 54 -22 24 -40 47 -40 52 0 4 -31 8 -70 8 -43 0 -70 -4 -70 -11z"/>
</g>
</svg>
