<?xml version="1.0" standalone="no"?>
<!DOCTYPE svg PUBLIC "-//W3C//DTD SVG 20010904//EN"
 "http://www.w3.org/TR/2001/REC-SVG-20010904/DTD/svg10.dtd">
<svg version="1.0" xmlns="http://www.w3.org/2000/svg"
 width="454.000000pt" height="545.000000pt" viewBox="0 0 454.000000 545.000000"
 preserveAspectRatio="xMidYMid meet">

<g transform="translate(0.000000,545.000000) scale(0.100000,-0.100000)"
fill="#000000" stroke="none">
<path d="M251 5399 c-105 -20 -175 -79 -208 -174 -17 -47 -18 -189 -18 -2515
0 -2388 1 -2467 19 -2519 25 -71 86 -132 157 -157 52 -18 121 -19 2069 -19
1948 0 2017 1 2069 19 68 23 131 85 157 152 18 47 19 105 22 1769 2 1189 -1
1740 -8 1785 -6 36 -25 94 -42 130 -28 60 -89 124 -727 761 -523 522 -709 702
-747 722 -112 59 -64 57 -1439 56 -693 -1 -1280 -5 -1304 -10z m2599 -309 c13
-8 16 -85 20 -562 5 -551 5 -553 28 -603 41 -89 97 -132 200 -154 35 -7 225
-11 565 -11 305 0 518 -4 527 -10 13 -8 15 -52 18 -275 l3 -265 -1941 0 -1940
0 2 919 c3 879 4 920 22 939 10 12 28 23 40 25 46 9 2441 6 2456 -3z m-520
-2165 c77 -8 195 -45 251 -81 139 -88 209 -229 209 -424 0 -175 -55 -317 -158
-411 -117 -107 -225 -140 -480 -146 -100 -3 -207 -2 -237 2 l-55 6 0 520 c0
448 2 520 15 525 21 9 271 22 335 18 30 -2 84 -6 120 -9z m-898 -6 c180 -38
278 -166 265 -349 -14 -211 -175 -330 -449 -330 l-68 0 0 -185 0 -185 -120 0
-120 0 2 523 3 522 45 6 c81 11 388 9 442 -2z m2168 -89 l0 -100 -205 0 -205
0 0 -120 0 -120 190 0 190 0 0 -100 0 -100 -190 0 -190 0 0 -210 0 -210 -120
0 -120 0 0 530 0 530 325 0 325 0 0 -100z m608 -1855 l-3 -604 -23 -23 -23
-23 -1889 0 -1889 0 -23 23 -23 23 -3 604 -3 605 1941 0 1941 0 -3 -605z"/>
<path d="M2105 2739 c-3 -8 -4 -167 -3 -354 l3 -340 86 1 c115 1 179 24 245
89 72 70 97 138 98 270 2 163 -46 255 -160 311 -47 23 -73 28 -160 32 -82 4
-105 2 -109 -9z"/>
<path d="M1180 2590 l0 -160 75 0 c87 0 128 14 170 59 25 27 30 41 33 99 4 63
2 71 -24 101 -39 47 -80 61 -174 61 l-80 0 0 -160z"/>
</g>
</svg>
