<?xml version="1.0" standalone="no"?>
<!DOCTYPE svg PUBLIC "-//W3C//DTD SVG 20010904//EN"
 "http://www.w3.org/TR/2001/REC-SVG-20010904/DTD/svg10.dtd">
<svg version="1.0" xmlns="http://www.w3.org/2000/svg"
 width="228.000000pt" height="317.000000pt" viewBox="0 0 228.000000 317.000000"
 preserveAspectRatio="xMidYMid meet">

<g transform="translate(0.000000,317.000000) scale(0.100000,-0.100000)"
fill="#000000" stroke="none">
<path d="M95 3120 c-11 -4 -31 -20 -45 -35 l-25 -27 -3 -1465 c-2 -1456 -2
-1466 18 -1498 43 -69 -23 -66 1109 -63 l1021 3 37 38 38 37 3 1003 c1 551 0
1013 -3 1027 -7 28 -923 952 -967 976 -23 12 -121 14 -595 13 -312 0 -577 -4
-588 -9z m1085 -585 l5 -470 473 -3 472 -2 -2 -298 -3 -297 -992 -3 -993 -2 0
768 c0 423 3 772 7 775 3 4 236 6 517 5 l511 -3 5 -470z m-465 -1301 c54 -27
77 -63 83 -128 9 -109 -73 -186 -197 -186 l-61 0 0 -90 0 -90 -60 0 -60 0 0
253 c0 140 3 257 8 261 4 5 61 6 128 4 92 -4 130 -9 159 -24z m378 -146 l112
-171 5 169 5 169 53 3 52 3 0 -260 0 -261 -58 0 -59 0 -116 178 -116 177 -1
-177 0 -178 -55 0 -55 0 0 260 0 260 61 0 60 0 112 -172z m697 163 c22 -6 25
-13 28 -60 3 -48 1 -53 -15 -46 -50 19 -129 27 -170 16 -107 -29 -154 -168
-93 -269 27 -44 70 -64 133 -60 l52 3 3 53 3 52 -50 0 -51 0 0 45 0 45 110 0
110 0 0 -109 c0 -60 -4 -121 -9 -134 -14 -36 -70 -52 -181 -52 -86 0 -100 3
-147 29 -88 49 -129 131 -121 245 8 107 63 187 158 230 35 16 65 20 130 20 47
-1 96 -4 110 -8z m340 -906 l0 -185 -995 0 -995 0 0 185 0 185 995 0 995 0 0
-185z"/>
<path d="M540 1089 l0 -80 51 3 c67 4 95 36 85 93 -6 29 -14 39 -41 51 -19 8
-48 14 -65 14 l-30 0 0 -81z"/>
</g>
</svg>
